<?xml version="1.0" encoding="UTF-8" standalone="no"?><!DOCTYPE svg PUBLIC "-//W3C//DTD SVG 1.1//EN" "http://www.w3.org/Graphics/SVG/1.1/DTD/svg11.dtd"><svg width="100%" height="100%" viewBox="0 0 600 600" version="1.1" xmlns="http://www.w3.org/2000/svg" xmlns:xlink="http://www.w3.org/1999/xlink" xml:space="preserve" xmlns:serif="http://www.serif.com/" style="fill-rule:evenodd;clip-rule:evenodd;stroke-linecap:round;stroke-linejoin:round;stroke-miterlimit:1.5;"><ellipse cx="299.085" cy="300.143" rx="250.278" ry="251.307" style="fill:none;stroke:#000;stroke-width:12px;"/><path d="M300,48.836l0,502.612" style="fill:none;stroke:#000;stroke-width:12px;"/><path d="M221.628,103.98l-0,158.164" style="fill:none;stroke:#000;stroke-width:12px;"/><path d="M220.262,341.595l-0,138.719" style="fill:none;stroke:#000;stroke-width:12px;"/><path d="M151.814,152.988l-0,107.05" style="fill:none;stroke:#000;stroke-width:12px;"/><path d="M151.814,328.038l-0,134.369" style="fill:none;stroke:#000;stroke-width:12px;"/><path d="M354.274,139.125l0,123.019" style="fill:none;stroke:#000;stroke-width:12px;"/><path d="M354.274,341.595l0,156.851" style="fill:none;stroke:#000;stroke-width:12px;"/><path d="M421.88,122.875l-0,151.025" style="fill:none;stroke:#000;stroke-width:12px;"/><path d="M421.88,341.595l-0,135.768" style="fill:none;stroke:#000;stroke-width:12px;"/><path d="M275.602,245.364l-175.838,-0" style="fill:none;stroke:#000;stroke-width:12px;"/><path d="M463.194,242.943l-105.989,0" style="fill:none;stroke:#000;stroke-width:12px;"/><path d="M476.263,179.188l-148.956,-0" style="fill:none;stroke:#000;stroke-width:12px;"/><path d="M267.63,179.188l-131.245,-0" style="fill:none;stroke:#000;stroke-width:12px;"/><path d="M439.414,429.251l-106.409,-0.08" style="fill:none;stroke:#000;stroke-width:12px;"/><path d="M243.55,369.135l-107.165,-0.081" style="fill:none;stroke:#000;stroke-width:12px;"/><path d="M260.217,429.251l-144.641,0" style="fill:none;stroke:#000;stroke-width:12px;"/><path d="M484.678,369.054l-148.956,0" style="fill:none;stroke:#000;stroke-width:12px;"/><path d="M48.807,300l500.556,0.143" style="fill:none;stroke:#000;stroke-width:12px;"/></svg>