<?xml version="1.0" encoding="UTF-8" standalone="no"?><!DOCTYPE svg PUBLIC "-//W3C//DTD SVG 1.1//EN" "http://www.w3.org/Graphics/SVG/1.1/DTD/svg11.dtd"><svg width="100%" height="100%" viewBox="0 0 600 600" version="1.1" xmlns="http://www.w3.org/2000/svg" xmlns:xlink="http://www.w3.org/1999/xlink" xml:space="preserve" xmlns:serif="http://www.serif.com/" style="fill-rule:evenodd;clip-rule:evenodd;stroke-linecap:round;stroke-linejoin:round;stroke-miterlimit:1.5;"><path d="M468.955,175.983c-2.524,-36.193 -60.685,-48.658 -99.646,-48.658l-144.793,4.857c-38.961,-0 -88.108,24.175 -99.764,59.36l-49.807,121.36c-15.327,41.457 33.773,56.057 72.734,56.057c100.843,7.41 204.605,4.016 301.667,25.425c38.961,-0 83.544,-23.533 69.416,-65.924c-5.285,-56.128 -35.959,-96.009 -49.807,-152.477Z" style="fill:none;stroke:#000;stroke-width:12px;"/><path d="M121.444,439.851c14.32,9.617 33.274,14.981 50.639,14.981l281.187,17.843c38.961,0 75.361,-22.322 74.756,-68.262l-6.643,-58.719" style="fill:none;stroke:#000;stroke-width:12px;"/><path d="M121.182,439.674c2.746,2.382 -49.657,-18.704 -49.212,-99.336" style="fill:none;stroke:#000;stroke-width:12px;"/><path d="M174.611,192.864c33.068,35.162 84.218,33.069 122.142,28.629c36.128,-4.229 91.391,-33.367 128.715,-31.407" style="fill:none;stroke:#000;stroke-width:12px;"/><path d="M450.892,306.194c-24.425,-13.183 -80.232,-28.244 -118.474,-16.895c-51.805,15.373 -105.178,33.521 -159.16,19.57" style="fill:none;stroke:#000;stroke-width:12px;"/><path d="M153.114,402.705c32.3,-2.555 69.631,21.655 100.991,22.735c31.098,1.071 56.056,-8.645 87.173,-8.645c32.062,0 68.655,23.056 96.064,23.056" style="fill:none;stroke:#000;stroke-width:12px;"/></svg>