<?xml version="1.0" encoding="UTF-8" standalone="no"?><!DOCTYPE svg PUBLIC "-//W3C//DTD SVG 1.1//EN" "http://www.w3.org/Graphics/SVG/1.1/DTD/svg11.dtd"><svg width="100%" height="100%" viewBox="0 0 600 600" version="1.1" xmlns="http://www.w3.org/2000/svg" xmlns:xlink="http://www.w3.org/1999/xlink" xml:space="preserve" xmlns:serif="http://www.serif.com/" style="fill-rule:evenodd;clip-rule:evenodd;stroke-linecap:round;stroke-linejoin:round;stroke-miterlimit:1.5;"><path d="M534.986,185.312c1.206,-6.069 -0.809,-15.694 -2.348,-23.182c-10.733,-52.201 -56.983,-91.506 -112.34,-91.506l-241.005,0c-56.771,0 -103.962,41.337 -113.092,95.528c-1.05,6.231 -2.732,13.545 -1.596,19.16c1.109,5.485 8.41,14.53 8.41,14.53l14.063,24.297c0,0 -20.693,24.582 -22.473,39.677c-3.746,31.759 -0,150.872 -0,150.872c-0,63.298 51.39,114.688 114.688,114.688l241.005,-0c63.298,-0 114.688,-51.39 114.688,-114.688c0,-0 4.667,-119.065 0,-150.851c-2.359,-16.065 -27.999,-39.862 -27.999,-39.862l18.417,-25.432c0,0 8.521,-7.89 9.582,-13.231Z" style="fill:none;stroke:#000;stroke-width:12px;"/><path d="M510.37,194.925c1.078,-5.484 -0.723,-14.182 -2.1,-20.948c-9.599,-47.172 -50.963,-82.69 -100.473,-82.69l-215.546,0c-50.773,0 -92.98,37.355 -101.145,86.325c-0.939,5.63 -2.444,12.239 -1.428,17.313c0.992,4.957 7.522,13.131 7.522,13.131l12.578,21.956c-0,-0 -18.508,22.213 -20.1,35.854c-3.35,28.698 0,136.336 0,136.336c0,57.199 45.961,103.638 102.573,103.638l215.546,-0c56.612,-0 102.573,-46.439 102.573,-103.638c0,-0 4.174,-107.594 0,-136.317c-2.109,-14.517 -25.041,-36.021 -25.041,-36.021l16.472,-22.982c-0,-0 7.62,-7.13 8.569,-11.957Z" style="fill:none;stroke:#000;stroke-width:12px;"/><path d="M152.619,275.246l182.531,-125.035" style="fill:none;stroke:#000;stroke-width:12px;"/><path d="M443.396,199.47l-306.088,202.289" style="fill:none;stroke:#000;stroke-width:12px;"/><path d="M472.548,300l-254.832,151.937" style="fill:none;stroke:#000;stroke-width:12px;"/><path d="M217.716,139.678l-65.097,59.792" style="fill:none;stroke:#000;stroke-width:12px;"/><path d="M459.137,412.602l-136.978,63.424" style="fill:none;stroke:#000;stroke-width:12px;"/></svg>